<svg xmlns="http://www.w3.org/2000/svg" viewBox="0 0 287.058 397.29"><g id="Layer_2" data-name="Layer 2"><g id="Layer_2-2" data-name="Layer 2"><path d="M285.115,96.671a10,10,0,0,0-13.98-2.135l-.676.5A237.2,237.2,0,0,0,232.786,129.5L115.518,61.8a237.124,237.124,0,0,0,11.016-49.86l.093-.846a10,10,0,1,0-19.881-2.178l-.093.847a218.419,218.419,0,0,1-88.44,152.528l-3.807,2.768L0,397.29,193.917,268.7l.5-4.681A218.41,218.41,0,0,1,282.3,111.155l.685-.5A10,10,0,0,0,285.115,96.671ZM175.069,257.2,40.291,346.575l67.6-117.079A40.2,40.2,0,1,0,90.674,219.31L23.906,334.955l9.883-159.324A238.41,238.41,0,0,0,108.253,80.7l111.8,64.546A238.4,238.4,0,0,0,175.069,257.2ZM101.615,180.67a20.31,20.31,0,1,1,7.434,27.743A20.324,20.324,0,0,1,101.615,180.67Z"/></g></g></svg>